# xmcd
#
# Track frame offsets: 
#        150
#        10635
#        30174
#        46540
#        58888
#        65633
#        75225
#        84379
#        97134
#        116428
#        130618
#
# Disc length: 1955 seconds
#
# Revision: 0
# Processed by: cddbd v1.5.2PL0 Copyright (c) Steve Scherf et al.
# Submitted via: ExactAudioCopy v0.99pb3
#
DISCID=7607a10b
DTITLE=Miller, Wess Band - 9 Out Of 10
DYEAR=2007
DGENRE=Bluegrass
TTITLE0=I Cried Again
TTITLE1=One Loaf Of Bread
TTITLE2=Smokey Mountain Memories
TTITLE3=Too Much Mountain Dew
TTITLE4=Shucking The Corn
TTITLE5=I'll Stay Around
TTITLE6=Six Feet Under Ground
TTITLE7=9 Out Of 10
TTITLE8=Town Of Hate
TTITLE9=Give My Heart A Break
TTITLE10=Free Born Man
EXTD=
EXTT0=
EXTT1=
EXTT2=
EXTT3=
EXTT4=
EXTT5=
EXTT6=
EXTT7=
EXTT8=
EXTT9=
EXTT10=
PLAYORDER=
